Coordinates
version=1
nRows=12
nColumns=24
inDegrees=yes

Units are S.I. units (second, meters, Newtons, ...)
Angles are in degrees.

endheader
time	pelvis_tilt	pelvis_list	pelvis_rotation	pelvis_tx	pelvis_ty	pelvis_tz	hip_flexion_r	hip_adduction_r	hip_rotation_r	knee_angle_r	ankle_angle_r	subtalar_angle_r	mtp_angle_r	hip_flexion_l	hip_adduction_l	hip_rotation_l	knee_angle_l	ankle_angle_l	subtalar_angle_l	mtp_angle_l	lumbar_extension	lumbar_bending	lumbar_rotation
      0.55400000	      6.66146204	      4.27701821	      5.06702626	     -0.78532403	      1.00586939	      0.25026764	     15.44467354	     -5.59943931	    -11.62315065	      3.57528463	      1.81182935	     -6.54082118	     -1.04615452	    -22.87155456	      4.69639710	     -0.37733395	     -5.45222267	     12.09752510	     -8.35180888	     -0.64081920	    -18.39989989	     -3.55453776	     -4.29933941
      0.55816667	      6.73032453	      4.24171030	      5.34235902	     -0.77935746	      1.00544447	      0.24990026	     15.40494061	     -5.63062669	    -11.68238998	      2.96216984	      1.76647597	     -6.84027703	     -8.98308384	    -23.13005215	      4.51697353	      0.09552663	     -5.79967913	     12.07765693	     -8.57626395	     -8.04893380	    -18.45708737	     -3.35511476	     -4.63376724
      0.56233333	      6.93230447	      4.09962356	      5.50602304	     -0.77321193	      1.00516441	      0.24988911	     15.19947560	     -5.47904319	    -11.64404318	      2.41478804	      1.52335667	     -7.40502260	     -8.94062909	    -23.49591319	      4.21495621	      0.15211415	     -6.21194644	     12.18473281	     -8.37493464	     -8.09567681	    -18.62665649	     -3.06203478	     -4.73281667
      0.56650000	      7.13294479	      3.95175706	      5.67170978	     -0.76701774	      1.00492627	      0.24987912	     14.98190116	     -5.31953681	    -11.63746537	      1.86408938	      1.24697737	     -7.88026012	     -8.87768643	    -23.84700078	      3.90528387	      0.20279974	     -6.63919496	     12.17383622	     -8.24449210	     -8.13752506	    -18.80867513	     -2.75907666	     -4.89887881
      0.57066667	      7.35087695	      3.80331390	      5.85220285	     -0.76079545	      1.00475062	      0.24984856	     14.73020191	     -5.15790929	    -11.67741311	      1.31755870	      0.91557741	     -8.36109951	     -8.79953091	    -24.20454704	      3.58634975	      0.29412982	     -7.09361519	     12.14601746	     -8.13847549	     -8.16310488	    -18.99598254	     -2.44929690	     -5.06441212
      0.57483333	      7.51496092	      3.67553510	      6.03376307	     -0.75452251	      1.00454822	      0.24982425	     14.52896638	     -5.02044273	    -11.73053058	      0.76687453	      0.52399732	     -8.85290189	     -8.73075391	    -24.48969412	      3.29469601	      0.41490010	     -7.57136371	     12.10519347	     -8.04534622	     -8.16630619	    -19.10618703	     -2.16502521	     -5.19907381
      0.57900000	      7.76104753	      3.50415747	      6.18585846	     -0.74820879	      1.00449102	      0.24991961	     14.20981126	     -4.80702309	    -11.75234040	      0.28147549	      0.04656777	     -9.36065179	     -8.61751392	    -24.83679750	      2.94924645	      0.43257954	     -8.08831322	     12.00206803	     -7.92279489	     -8.14722998	    -19.32356659	     -1.83700601	     -5.39642031
      0.58316667	      7.96918014	      3.35033822	      6.34008876	     -0.74187454	      1.00442562	      0.25002887	     13.92310976	     -4.61353656	    -11.79297785	     -0.18804327	     -0.53759645	     -9.87050952	     -8.46692377	    -25.12106137	      2.62350225	      0.46137222	     -8.64992056	     11.88942893	     -7.77170746	     -8.09303133	    -19.48682667	     -1.53643265	     -5.53015920
      0.58733333	      8.15577338	      3.18827886	      6.47272787	     -0.73549037	      1.00436836	      0.25020777	     13.64779065	     -4.40111184	    -11.81290393	     -0.62722023	     -1.19315536	    -10.41078802	     -8.29351435	    -25.35958034	      2.29789152	      0.45885928	     -9.25247516	     11.74489396	     -7.63731464	     -8.00171215	    -19.61804786	     -1.23668886	     -5.64625004
      0.59150000	      8.31603105	      3.02185006	      6.61721323	     -0.72906347	      1.00432941	      0.25035413	     13.38750127	     -4.18973859	    -11.87237353	     -1.04610796	     -1.90271831	    -10.95910142	     -8.17724903	    -25.54571379	      1.96990338	      0.48274622	     -9.89562208	     11.57085429	     -7.55442032	     -7.91840793	    -19.70482942	     -0.92621592	     -5.70550536
      0.59566667	      8.54163296	      2.80206016	      6.66400026	     -0.72255339	      1.00438411	      0.25078688	     13.04467477	     -3.87509233	    -11.83003102	     -1.39273294	     -2.71968427	    -11.47711919	     -7.67871371	    -25.77609988	      1.59500942	      0.26654931	    -10.58541186	     11.35592128	     -7.25858367	     -7.50500972	    -19.86860937	     -0.59800578	     -5.67081236
      0.59983333	      8.70833736	      2.65686263	      6.74441978	     -0.71617869	      1.00444069	      0.25113547	     12.76595780	     -3.65986113	    -11.78961904	     -1.74833736	     -3.58397744	    -12.06428112	     -7.49608179	    -25.90998272	      1.30900389	      0.24221133	    -11.32940621	     11.06375395	     -7.24014108	     -7.31120026	    -19.98475392	     -0.34297332	     -5.83027373
